# xmcd
#
# Track frame offsets:
#	150
#	35232
#	51358
#	78117
#	96880
#	114324
#	139239
#	147188
#	165588
#	175709
#	184766
#	192062
#	206554
#	225222
#	247744
#
# Disc length: 3517 seconds
#
# Revision: 0
# Processed by: cddbd v1.5.2PL0 Copyright (c) Steve Scherf et al.
# Submitted via: EasyCDDAExtractor 2010.4.0.0
#
DISCID=be0dbb0f
DTITLE=Федор Борковский - Русь идет
DYEAR=2011
DGENRE=Acapella
TTITLE0=Святая Русь (ст. С.Бехтеева)
TTITLE1=Закалается Царь (ст. о. Александра (Никулина))
TTITLE2=Матерь Божия Ченстоховская (ст. Ф.Борковского)
TTITLE3=Покаянный молитвенный ход (ст.Ф.Борковского)
TTITLE4=Они пройдут... (ст. С.Бехтеева)
TTITLE5=Белая Холуница (ст. Ф.Борковского)
TTITLE6=Там, где сердце молитву творит (о. Константин (Образцов))
TTITLE7=Предчувствие беды (ст. Л.Чашечникова)
TTITLE8=Черная сотня (ст. Л.Кологривовой)
TTITLE9=Перед рассветом (ст. Г.Горбовского)
TTITLE10=Мой конь (ст. о. Анатолия (Трохина))
TTITLE11=Русь идет! (ст. Л.Кологривовой)
TTITLE12=Русь моя, белокрылая (ст. Е.Васильевой)
TTITLE13=Царицы верная подруга (ст. Ф.Борковского)
TTITLE14=Русь, воскресшая Русь! (ст. Ф. Борковского)
EXTD=
EXTT0=
EXTT1=
EXTT2=
EXTT3=
EXTT4=
EXTT5=
EXTT6=
EXTT7=
EXTT8=
EXTT9=
EXTT10=
EXTT11=
EXTT12=
EXTT13=
EXTT14=
PLAYORDER=
